<svg xmlns="http://www.w3.org/2000/svg" viewBox="0 0 30 30">
    <path 
        fill-rule="evenodd"
		clip-rule="evenodd"
        d="m3.30177,4.97755c0,-0.92562 0.76916,-1.67577 1.71818,-1.67577l19.9601,0c0.94902,0 1.71818,0.75015 1.71818,1.67577l0,20.04491c0,0.92562 -0.76916,1.67577 -1.71818,1.67577l-19.9601,0c-0.94902,0 -1.71818,-0.75015 -1.71818,-1.67577l0,-20.04491zm7.22804,17.90998l0,-10.56496l-3.51093,0l0,10.56496l3.51093,0zm-1.75473,-12.00823c1.22393,0 1.98577,-0.8101 1.98577,-1.82492c-0.02193,-1.03676 -0.76038,-1.82492 -1.96238,-1.82492c-1.20199,0 -1.98724,0.78963 -1.98724,1.82492c0,1.01482 0.76185,1.82492 1.94044,1.82492l0.0234,0zm7.17686,12.00823l0,-5.90029c0,-0.31585 0.0234,-0.6317 0.11698,-0.85689c0.25297,-0.63024 0.83057,-1.28388 1.80153,-1.28388c1.27072,0 1.77813,0.96803 1.77813,2.38936l0,5.65171l3.51093,0l0,-6.05968c0,-3.24626 -1.73134,-4.75533 -4.04174,-4.75533c-1.86294,0 -2.6979,1.02359 -3.16583,1.7445l0,0.03656l-0.0234,0a8.10102,8.10102 0 0 1 0.0234,-0.03656l0,-1.49445l-3.50947,0c0.04387,0.99142 0,10.56496 0,10.56496l3.50947,0z"
        fill="#fafcfa"
		stroke="none"
    />
</svg>